<svg xmlns="http://www.w3.org/2000/svg" id="a" viewBox="-0.03 0.02 362.7 316.22"><defs><style>.c{fill:#88534b}.d{fill:#282422}.g{fill:#3b2f2a}.h{fill:#3a2f2a}.i{fill:#89544c}.k{fill:#040302}.l{fill:#020101}</style></defs><path fill="#040303" d="m191 307.8-1.3 4a4 4 0 0 1-3 2.7c-3.1.9-6.4 1.6-9.8 1.7a5 5 0 0 1-3.6-1.2c-1.5-1.2-3-2.5-4.4-4-1.7-1.7-3.2-3.7-4.7-5.6a2 2 0 0 0-1.3-.7l-14.7-1.6-11-1c-7.1-.6-14.2-.8-21.4-.7-7.5 0-15.1.3-22.7.2-4.8 0-9.6-.5-14.4-.8l-6.9-.8-1.4 5.7c-.4 1.8-1.6 2.7-3.1 3.2-1.4.5-2.8.7-4.3 1a39 39 0 0 1-7.8.6c-1.2 0-2.3-.3-3.2-1.2l-4.4-4.3a100 100 0 0 1-17-28.1 56.8 56.8 0 0 1-3.7-23.4c.2-2.3 1.5-3.7 3.8-4 1.4-.2 2.8-.2 4.3-.3a4 4 0 0 0 2-.6l2.3-1.4c2.6-1.7 2.9-1.8 6-1.8v-.5c0-10.9 1.7-21.5 4.3-32l4-14.4c0-.7-.1-1-.4-1.5-4-7.6-9.7-14-15.7-20.1l-16-16a111 111 0 0 1-18-24.5 32 32 0 0 1-3.2-7.6 9 9 0 0 1-.3-2.3c0-2.6 1-3.6 3.7-3.6.2-1 0-2 0-3.1-.3-2.1-.2-4.1.8-6a3 3 0 0 1 3-2h4.2l.2-1c.1-1.3.6-2.5 1.4-3.5 1.4-1.8 3.2-2.3 5.2-1.1l5.4 3.3c6.3 4 12.7 8 19.4 11.3l5.9 3 .7.2c-3.6-5.1-5.6-11-7-17.1l-1.8.5-1.2.3c-.8.2-1.5-.3-1.8-1-.2-.7 0-1.5.7-1.9l1.5-.6 2-.7c-.6-6.3-.1-12.5.7-19l-3.3.3c-4.2.5-8.3 1.2-12.5 1.8l-2.8.3c-1.1 0-1.9-.6-2-1.5 0-.9.7-1.5 1.7-1.7l14.5-2.1 5-.4 1-4.2a101.2 101.2 0 0 1 17.9-40.7l.7-1-1.2-.8c-3-2.2-5.6-4.9-8-7.7-3-3.6-3.7-7.7-3.2-12 .3-2 1-4 1.6-5.9 1-3.2 3.3-5.4 6.5-6.6 3-1.2 6.1-2 9.4-2.2 2.5-.2 5 0 7.3.8a14 14 0 0 1 7.5 5.6c1.3 2 2.4 4 3.3 6.2l.7 1.4.4-.2a95.3 95.3 0 0 1 33.1-12 107.7 107.7 0 0 1 64.7 11.3l3.4 2 4.5-6.4c1.3-1.6 2.8-3.1 4.3-4.6 2.9-3 6.5-3.8 10.5-3.5 4.1.3 7.6 2.1 10.6 5a14 14 0 0 1 4 6.3c.8 3 1.2 5.9 1.2 9 0 2.7-1 5.1-3 7a27.3 27.3 0 0 1-8.2 5.7l-1.2.6.4.5a106 106 0 0 1 21.7 42.8l1 4.8 4.8.8h.6c.9.2 1.5 1 1.4 1.7 0 .8-.7 1.5-1.6 1.5l-3.1-.3-1.9-.3a56.6 56.6 0 0 1-18.7 43.5c2.2 5.6 4.8 11 7.7 16.3l11.6 20.6c4 7.5 8.1 15 12 22.6 1.6 3 2.7 6 4 9.1 2 5 3.7 10.3 5 16l.6-1.4c2.1-5 4.4-10.1 6.4-15.3 5.7-14.6 11.2-29.3 17-44a185 185 0 0 1 11.4-24.7 63.4 63.4 0 0 1 13-16.4 27 27 0 0 1 9.4-5.8 25 25 0 0 1 17.3.8 38.7 38.7 0 0 1 17 13.5 73 73 0 0 1 10.1 18.8 46.4 46.4 0 0 1 1.3 35.2 169.4 169.4 0 0 1-27.8 46.2 283 283 0 0 1-31.5 32.4 112.2 112.2 0 0 1-23.2 16 96.6 96.6 0 0 1-29.3 9.4c-.7 0-1 .3-1.4.9-1.6 3.1-4 5.6-6.6 8a71.3 71.3 0 0 1-26.8 15.2c-5.4 1.8-10.9 3.4-16.5 4.3l-4.4.6-1.4.1ZM75.8 144l-.5-.3-.5-.2-.5-.3-2.7-1.4a79 79 0 0 1-15.2-10.3c-2.6-1.5-5.2-3-7.8-4.3l-11.7-6c-5.4-3-10.5-6.3-15.6-9.5l-4.2-2.5c-.8-.5-1.1-.4-1.5.4-.3.5-.4 1.1-.5 1.7l-.2 1c-.3 1.6-1 2.4-2.6 2.6L9 115c-1.9 0-2 .1-2.2 2v1.3l.2 3-.1 3c-.2 1-1 1.7-2.1 1.8H3.4c-.3 1 0 1.8.3 2.5 1 2.3 1.8 4.6 3 6.7a98 98 0 0 0 12.5 18C23.9 159 29 164 34.1 169l6.7 6.5 5.6 6.3c2.6 3 5.1 6 7.1 9.3l3.7 6.3-.3 1.5-4 14.8a132.3 132.3 0 0 0-4.3 33c1.2.8 2.4.8 3.7.4l1.1-.5c2.5-1 4-.6 5.4 1.7a29 29 0 0 1 2.2 4.3 244 244 0 0 1 8.8 27.9c.8 4 1.3 8.1 2 12.2l.2 3.8c.9.2 1.7.5 2.6.6l8.7.9c4.2.3 8.3.4 12.4.5l8.1-.1 19.9-.1 9.7.3 9.2.7 6.3.6 9.9 1.1 2.3.3-4.6-9.5a106 106 0 0 1-4.6-13.4 44.8 44.8 0 0 1-2-13.1c.1-1.8.3-3.5.8-5.2a3.4 3.4 0 0 1 3.3-2.5h3.4c1.2.2 2.2 0 3.2-.8l4-2.6a6 6 0 0 1 5.6-.7l2.3.9c1.4.5 2.8.6 4.2-.2 1.5-.8 3.1-1.3 4.9-1.4 2 0 3 .6 3.8 2.5a74.1 74.1 0 0 1 5.4 24l1 10.2.2 6c0 1.6-.3 3-.2 4.5 0 1.5-.5 3-.2 4.5 1.6-.2 3.1-.3 4.6-.6a116 116 0 0 0 19.8-5.6c8-3 15.5-7.2 21.8-13l1-1.2c.9-.8 2-1.6 2.7-2.6a45 45 0 0 0 3.5-5.8 95.9 95.9 0 0 0 9.3-38c.3-4.6.3-9.2 0-13.9a69 69 0 0 0-3.1-16.3c-1.3-3.8-2.5-7.6-4-11.3a140 140 0 0 0-5-10.4c-5.4-10.5-11.3-20.7-17.1-30.9-3.8-6.6-7.4-13.2-10.3-20.2L212 128c6.8-5 11.2-11.7 14.7-19.2a46.5 46.5 0 0 0 4.6-23.5 91 91 0 0 0-46 4.1c-.7 0-1.2-.3-1.5-1-.3-.5-.2-1.2.3-1.7a3 3 0 0 1 .9-.6l3-1.2a88.2 88.2 0 0 1 23.9-4.2c6-.2 12 0 18 1h1a119 119 0 0 0-8.2-24.3c-2.1-5-4.9-9.8-8.2-14.1a106 106 0 0 0-32.2-28 99 99 0 0 0-45.8-11.1c-4.3 0-8.7.3-13 .6a58 58 0 0 0-14.7 3 81.5 81.5 0 0 0-33.4 19.4c-3.6 3.5-7.1 7-10.1 10.8A90 90 0 0 0 54 58c-3.2 7.3-5.3 15-7 22.7v.5h1a94.5 94.5 0 0 1 30.4 5.4l1.2.6c.5.5.6 1.3.3 1.9-.2.6-.9 1-1.6.9a123 123 0 0 0-27.1-5.4h-5c-.6 6-1.4 11.8-.6 17.9l1.6-.4a88.6 88.6 0 0 1 26.8-3c.9.2 1.4 1 1.2 1.8-.1.8-.8 1.4-1.7 1.3a81.8 81.8 0 0 0-26.6 3.4l-1 .4a37.5 37.5 0 0 0 13.4 23.4c2.3 1.9 4.6 3.8 7 5.5a80.2 80.2 0 0 0 16.9 8.5c3 .9 6 1.6 9 2.3 1.3.4 1.6.7 1.8 2.2-.6 1-1.2 1.4-2.2 1.2-4.2-.9-8.3-1.8-12.3-3.5l-3.4-1.3-.3-.2Zm201.9 25.4.7-.4 2-1.7a140 140 0 0 1 20-13c.8-.3 1.4-.8 2.2-1.2a40 40 0 0 0-3-3.7l-3.5-3.8c-1.7-2-3.5-3.7-5.7-5.1-.8-.6-1-.6-1.4.3l-2.3 5.3-8.5 21.4c-.3.6-.4 1.2-.6 1.9v.1Zm3.7 93.5 1.4-.7 3-1.9 7.5-5.6 2-1.6c3-2.5 6-5 8.8-7.7l9.4-9.2 7-7.4 1.6-1.8c.2-.2.2-.5.3-.8a17 17 0 0 0-5.4-.9c-4.6 0-9.1-.2-13.6.2l-6.6.6-5.2.7-8.3 1.3.3 2.2.6 5.1c.1 1.8.4 3.5.4 5.2 0 3.5.1 7-.5 10.5-.3 1.9-.5 3.8-1 5.6-.4 2-1.1 4.1-1.7 6.1l-.1.2v-.1ZM64.9 11.6l.3-.2c1-1.3 1.8-1.3 2.9-.2l1.3 1.6a35.6 35.6 0 0 1 6 10c.1-.2.3-.2.4-.2l7.8-6.1c.5-.4.6-.7.3-1.3L81.3 10c-.6-1-1.2-2-2-3-2.2-2.3-5-3.3-8.2-3.5-3.6-.2-7 .6-10.3 1.8-1.8.6-3.4 1.4-4.4 3.1A17.7 17.7 0 0 0 54 18.7c.2 1.5.5 3 1.4 4.4 1.6 2.4 3.6 4.6 5.8 6.5l3 2.4c1 .7 1.1.7 2 0 1.8-2 3.7-3.9 5.6-5.7.6-.6.7-1.2.5-1.8l-.8-2.2a37.3 37.3 0 0 0-5.8-8.8c-.5-.5-.8-1.1-.8-1.9m146 19.2c.6-.3 1.3-.4 2-.8l4.3-3c2.6-2 3.7-4.5 3.3-7.7l-.7-4.9c-.8-4-3.1-6.8-6.6-8.7a14 14 0 0 0-7.3-1.6c-2.3 0-4.2.8-5.8 2.3-3.1 2.8-5.6 6-7.8 9.6-.6 1-.5 1.2.5 1.9l3.6 2.6 1.5 1.1 4.5-4.3c1.5-1.2 3-2.2 4.7-3.2 1.3-.8 2-.5 2.8 1 0 .9-.4 1.4-1 1.8a30.9 30.9 0 0 0-7.5 6.1l-.8 1.1 1 .8 4.8 4.3 2 2c.3.3.7.5 1.3.2zm79.3 192.9h.4l8.3-1 3-.3c2-.2 3.9-.4 5.8-.4h8c1.6 0 3.2.2 4.8.4l2.4.3a89 89 0 0 0-18-66.7l-.8.3c-3.7 2.2-7.5 4.2-11.2 6.5a99.7 99.7 0 0 0-15.5 11.7 10.8 10.8 0 0 0-3.3 4l-4.8 12.6c-.7 2-.6 2 1 3.2l1.7 2.3c2.4 3.3 4.2 6.9 5.7 10.6 2.1 5.4 3.6 11 4.8 16.6 0 .4.3.7.4 1.1zm36-1.3.6-.4c1.4-1.6 2.8-3.2 4-4.9l6.1-8a143.9 143.9 0 0 0 19.8-35.4c.7-2 1.5-4 1.7-6 0-1.4.3-2.8.5-4.2l.4-4.4-.2-4.2-.7-5c-.6-3-1.8-6.1-2.9-9.1-.4-1.2-.5-1.2-1.7-1.2-2.5 0-4.8.6-7.2 1a113.7 113.7 0 0 0-25.4 7.7c-4.2 1.7-8.2 3.7-12.3 5.6l-.9.6a92.2 92.2 0 0 1 18.3 68ZM306 151.6a140 140 0 0 1 47.7-15.5l-.6-1.4-1.6-3.3c-2.1-4.2-4.8-8-7.9-11.6a32.2 32.2 0 0 0-11.5-8.8c-3.5-1.5-7-2.6-11-2.5a20 20 0 0 0-10.2 3.1c-2.6 1.7-5 3.8-7 6.2l-4 4.5c-3.4 4.3-6 9-8.4 13.8l-.2.7 3.7 2.9c2.5 2 4.6 4.5 6.7 7l4.3 5ZM55.5 249.3l-2.8 1c-1.5.5-3 .6-4.5-.2l-1.9-.8a4 4 0 0 0-4.6.3c-.8.7-1.8 1.3-2.8 1.8-1 .6-2 1-3.1 1.1l-4 .2c-1.4.1-1.7.4-1.7 1.9l.3 5.8a58.3 58.3 0 0 0 4.6 18.4c2 4.6 4.4 9.1 7.1 13.4 2 3 3.8 6 6.2 8.5l4.6 5c1 1 2.2 1.7 3.8 1.5l8.6-1c1-.2 1.8-.8 2.1-2 .9-2.5 1.1-5 1.2-7.7a106.3 106.3 0 0 0-5.9-29c-1-3.2-2-6.4-3.2-9.6-1-2.5-1.7-5-3-7.2zm133 45.7h.1l-.4-8.3-.2-3-.7-6.7-1-7c-.7-4.2-2-8.3-3.5-12.3-.5-1.5-1-1.8-2.5-1.3l-3 1c-1.2.6-2.5 1-3.9.6l-3.5-1.1c-1.4-.6-2.7-.8-4 .3-1.3 1-2.7 1.7-4 2.6a5.7 5.7 0 0 1-3.8 1.2l-3.2-.3c-.7 0-1 .3-1.2 1l-.5 3.3c-.2 3.3.4 6.5 1.2 9.7a101.6 101.6 0 0 0 10.3 25.6c2.5 4 5.4 7.6 8.9 10.8 1.2 1.1 2.5 2.2 4.4 1.8l1.3-.2 5.6-1c1-.2 1.7-.8 2-1.8l.8-3.3.8-7.6zm60.6-20 3.2-.4c5-1.1 10-2.6 14.9-4.5 2.7-1 5.3-2.3 8-3.5.6-.3 1.1-.7 1.4-1.4l2-4.5a37 37 0 0 0 2.4-10.3l.3-3.9c0-1.8.2-3.7.1-5.5-.1-2.6-.4-5.1-.7-7.7l-.6-4.2-2.6.4-10.3 2.9c-3 .8-6.1 1.9-9 3.4-.4.3-.6.6-.6 1-.2 3.2-.4 6.3-.8 9.3a88.6 88.6 0 0 1-6 24.4l-1.8 4.6Zm18.3-78.8-6 14.7c-1.1 2.5-2.1 5-3.8 7.2-.5.7-.5 1.4-.5 2.2l.5 3.7.3 6.8v1.3c7-3 14.2-4.8 21.5-6.5a100 100 0 0 0-4.2-15.4c-1.5-4-3.3-8-5.9-11.5z"/><path fill="#b28871" d="m192 295.5-.3-6a427 427 0 0 0-2-19 64 64 0 0 0-4.3-15.3c-.8-1.9-1.8-2.5-3.9-2.4-1.7 0-3.3.5-4.8 1.3s-2.8.8-4.2.2a92 92 0 0 0-2.3-.9 6 6 0 0 0-5.7.7l-3.9 2.7c-1 .7-2 1-3.3.8a22 22 0 0 0-3.3 0c-1.6 0-2.8.9-3.3 2.5a19 19 0 0 0-.8 5.1 44 44 0 0 0 2 13c1.2 4.7 2.8 9.2 4.6 13.6l-1.3-.1c-2.8-.7-5.6-1.1-8.5-1.1-6.3 0-12.7 0-19 .2-2.4 0-4.8.2-7.1.3l-3.7.2-4.5.5-4.7.3-3.5.2-6.2.5h-.6c-2 .2-3.9.4-5.8.4-5.1 0-10.3 0-15.4-.2l-1.8-.2-2.6-.2-2-12.2c-1.3-6.1-3.2-12-5.2-18a273 273 0 0 0-3.6-9.9 29 29 0 0 0-2.2-4.3c-1.4-2.3-3-2.7-5.4-1.7l-1.1.5c-1.3.5-2.5.5-3.7-.5 0-11 1.5-22 4.3-32.9 1.2-5 2.6-9.9 4-14.8l.3-1.5.6-2 3.7-10.6 5-12.3 4.3-10.4v-.8l-.7.4-3 1.9-15.6 8.5-1.7.8a15.3 15.3 0 0 1-9 2.6L34 169c-5.1-5-10.2-10-14.9-15.4-4.8-5.6-9-11.6-12.5-18-1.2-2.2-2-4.5-3-6.7-.3-.8-.5-1.6-.3-2.6H5c1 0 2-.7 2-1.8.2-1 .2-2 .2-3l-.3-3V117c.3-1.8.4-1.8 2.3-1.9h3.3c1.5-.3 2.3-1.1 2.6-2.6.1-.4 0-.8.2-1.1.1-.6.2-1.2.5-1.7.4-.8.7-1 1.5-.4l4.2 2.5c5.1 3.2 10.2 6.6 15.6 9.4l11.7 6 7.8 4.4 1.2.9a79 79 0 0 0 16.7 10.8l.5.3.5.2.5.3.3.2.4.5 1.8 1c2.2 1.5 4.5 2.5 6.4 4.3l7 6.9c2 2 3.8 4.4 5.6 6.5l6.6 7.6c1.8 2.1 3.5 4.2 5.7 6a13 13 0 0 0 3.6 2.2c-1.7-3-3.4-6.1-4.1-9.8l1.4.7c3.6 1.8 7.2 3.4 11 4.6 2.2.7 4.5 1.1 6.8 1.1 2.7 0 5.5 0 8.2-.5 2.1-.4 4.2-.7 6-1.8l8-5 1.3-.8c-.3 2.6-1 5-.6 7.6l.8-1.3c2-4.1 5-7.7 8.1-11 2.2-2.3 4.5-4.4 6.8-6.6q4.2-3.9 9.3-6.6l1.3-1 2.6-.7 1.2-.4c.8-.5 1.1-1.4.8-2.1a1.7 1.7 0 0 0-2-1l-1.2.4a154.2 154.2 0 0 1-35.6 5.1h-8.6a3 3 0 0 0-2.2.9l-3.3.2h-5.6c-3.5.1-7-.2-10.5-.6l-7.2-.9-7.5-1.2-4.4-.8c-.2-1.5-.5-1.8-1.8-2.1l-9-2.4c-1.8-.5-3.5-1.3-5.2-2-4-2-8-3.9-11.7-6.4-2.4-1.7-4.7-3.7-7-5.6A37.5 37.5 0 0 1 46 106l1-.4a81.8 81.8 0 0 1 26.6-3.4c1 0 1.6-.4 1.7-1.2.2-.8-.3-1.7-1.2-2a88.6 88.6 0 0 0-26.8 3l-1.6.5c-.8-6 0-12 .7-18h4.9c2.6.3 5.2.4 7.9.8A69.7 69.7 0 0 1 78.4 90c.7 0 1.3-.3 1.6-1 .3-.5.2-1.3-.4-1.8-.3-.2-.7-.5-1.1-.6A94.5 94.5 0 0 0 48 81.2h-1v-.6c1.7-7.7 3.8-15.4 7-22.7 3-7 6.5-13.8 11.2-19.8A92.8 92.8 0 0 1 109 7.9c4.8-1.6 9.7-2.7 14.7-3a99 99 0 0 1 58.8 10.5 105.1 105.1 0 0 1 32.3 28c3.2 4.3 6 9 8.2 14 2.8 6.4 5.5 13 7.2 19.8l1 4.5H230a88.2 88.2 0 0 0-41.7 3.3l-3.2 1.2c-.3 0-.6.3-.9.6-.4.5-.5 1-.2 1.7.2.6.8 1 1.5.9a66.2 66.2 0 0 1 16-4.3 90.3 90.3 0 0 1 30 .2 48 48 0 0 1-4.6 23.6c-3.5 7.4-8 14.1-14.7 19.1l2.6 6.6c3 7 6.6 13.7 10.3 20.2 5.9 10.2 11.8 20.4 17.1 30.9a140 140 0 0 1 5 10.4c1.6 3.7 2.8 7.5 4 11.3a68 68 0 0 1 3 16.4c.5 4.6.5 9.2.2 13.9a98.3 98.3 0 0 1-9.3 38q-1.5 3-3.6 5.7c-.7 1-1.8 1.8-2.7 2.7l-1.4.5c-2.5 1.4-5 2.9-7.6 4a78.5 78.5 0 0 1-26.2 6.7l-7 .4-4.5-.2Zm28.8-84.8v.1h.1l-1-4.6c-.7-3-1.3-6-1.6-9a36 36 0 0 0-.7-4.5c-.7-2.8-.7-5.6-1-8.3l-.4-3.6.5-2.3c0-.7 0-1.5-.2-2.2s-1-1.1-1.8-1c-.8.2-1.3.9-1.3 1.8 0 .8-.2 1.7-.4 2.5a104.3 104.3 0 0 1-15.8 32.2c-4 5.8-8.7 11.2-13.5 16.4-2.3 2.4-4.8 4.6-7.3 6.9-1 .9-2.2 1.6-3.5 2.5l-.9-1.2c-1.2-1.3-1.7-1.5-3.3-.8-.6.2-1.2.3-1.9 0a8 8 0 0 1-3.5-1.7 8.4 8.4 0 0 0-5-2.4c-.7 0-1.4-.2-2.1-.4-.5-.1-.8-.4-.7-1l.3-2.2c.7-5.4 2-10.7 3.2-16 1.4-5.7 2.8-11.3 4-17 .8-4.2 1.4-8.5 2.1-12.8l1.4-10.3c.2-1 .1-2 0-2.9-.2-1-1.2-1.4-2-.8-.4.3-.7.7-.9 1.1l-.2 1.1-2.2 15.6a180 180 0 0 1-3.2 16.6c-1.7 7.1-3.7 14.2-5 21.5l-.8 6c-.2 2.2.8 3.6 3 4.3.5.2 1 .3 1.6.3 2 .2 3.6.8 5 2.3 0 0 .1.2.3.2 2 1.4 4 2.2 6.5 2 .8-.2 1.4-.1 2 .5 0 .2.3.3.5.5.8.7 1.8 1 2.8.5l2-1 5.1-4c3.3-3 6.1-6.1 9-9.4l4.3-5 4.3-.5a37 37 0 0 1 10 1.1c2.9.7 5.8 1.3 8.2 3 .5.5 1.1 1 2 .8v-.5l-.2-12.3-.1-.6c-.2-1-.2-2.2.1-3.4.5.3.7.8 1 1.1l1.2.9Zm-44-137.5v-1.3a9.7 9.7 0 0 0-3.1-6.4c-2.2-1.9-5-2-7.3-.2-1 .9-1.7 2-2.3 3.1-.8 1.9-1.1 4-.9 6 .2 2.1 1 4.2 2.4 5.8 1.6 1.7 3.4 2.5 5.7 2a6.2 6.2 0 0 0 3.7-2.7 11 11 0 0 0 1.9-6.3Zm-76.8 1v-1.3a9.7 9.7 0 0 0-3.1-6.4c-2.2-2-5.1-2-7.4-.1a8 8 0 0 0-2.2 3c-.8 1.9-1.1 3.9-1 6 .3 2.2 1 4.2 2.5 5.8 1.6 1.7 3.4 2.5 5.7 2a6.3 6.3 0 0 0 3.7-2.6 11 11 0 0 0 1.8-6.4m21.3 28 .6 4.5c.6 4 1.9 8 3.7 11.7.9 1.7 2 3.2 3.6 4.3 1.4 1 3 1 4.6.3a7 7 0 0 0 1.7-1.3c1.4-1.4 2.5-3 3.2-4.7 1.5-3.8 2.8-7.6 3.4-11.7l.4-2.7 2-.6c.5-.2.8-.6.7-1.1s-.6-.8-1.2-.5c-1.6.6-3.1.4-4.7.2a8.5 8.5 0 0 1-6.6-4c-.7-1-1.4-1.1-2 0a8.4 8.4 0 0 1-4 3.2c-2 .8-4.2 1-6.3.3-1-.4-1.4-.2-1.6.4s.1 1 1 1.3l1.5.5Zm72.5-3.8h-3.6c-1 0-1.7 1-1.7 1.8 0 1 .8 1.5 1.8 1.5 3.6-.2 7 0 10.6.4 4 .3 8 .9 12 2 3.4.8 6.9 2 10.3 3 1.3.4 2.2 0 2.5-.9.4-1-.2-1.8-1.5-2.3-9.8-3.5-20-5.4-30.4-5.5M132 81.6v.1h-1.4l-2.4.3c-.7.2-1.4.3-2 .7-1.8.9-2.3 2.6-1.2 4.3l.6.8 4.8 4.2c1.2 1 2.4.8 3.5 0l4-3.6c.4-.4.8-.9 1-1.4.7-1.4.6-3-1-4-.5-.3-1-.5-1.6-.6-1.4-.4-2.9-.6-4.3-.8"/><path d="M270.3 194.3c-1.6-1.3-1.7-1.3-1-3.2l4.9-12.6c.6-1.7 2-2.9 3.2-4l4.6-3.9a87 87 0 0 1 11-7.8c3.6-2.3 7.4-4.3 11.1-6.5l.8-.3a89 89 0 0 1 18 66.7l-2.4-.3c-1.6-.2-3.2-.4-4.8-.4h-8c-2 0-3.8.2-5.7.4l-3 .3-8.4 1h-.4l-.4-1.5c-1.4-4-3.3-7.8-5.3-11.5a59.8 59.8 0 0 0-12-15c-.6-.5-1.1-1.4-2.2-1.4" class="g"/><path d="M326.3 222.4c3-25.2-3.4-47.7-18.3-67.9l.9-.6c4-1.9 8.1-3.9 12.3-5.6a132.8 132.8 0 0 1 25.4-7.7c2.4-.4 4.7-1 7.2-1 1.2 0 1.3 0 1.7 1.2 1.1 3 2.3 6 2.9 9.2a57 57 0 0 1 .9 9c0 1.6-.3 3-.4 4.5l-.5 4.2c-.2 2.1-1 4-1.7 6a145 145 0 0 1-19.7 35.4l-6.1 8-4 4.9zm-20.4-70.8-4.3-5c-2.1-2.4-4.2-4.9-6.7-6.9l-3.7-2.9.2-.7c2.4-4.8 5-9.5 8.3-13.7l4-4.6c2-2.4 4.5-4.4 7.1-6.1 3.1-2 6.6-3 10.3-3.2 3.9 0 7.4 1 10.9 2.5 4.6 2 8.3 5.2 11.5 8.8a54.1 54.1 0 0 1 9.5 15l.6 1.3c-17 2-32.8 7.8-47.7 15.6ZM55.5 249.3l1 1.4c1.3 2.3 2 4.7 3 7.2l3.2 9.6a132 132 0 0 1 5.4 23.4 27.6 27.6 0 0 1-.7 13.3c-.4 1.2-1 1.8-2.1 2l-8.6 1c-1.6.2-2.8-.4-3.9-1.5l-4.5-5a90.3 90.3 0 0 1-16.6-31.5 58.3 58.3 0 0 1-1.6-14.6c0-1.5.3-1.8 1.7-1.9l4-.2c1.2 0 2.1-.5 3.1-1 1-.6 2-1.2 2.8-1.9 1.5-1 3-1 4.6-.3l1.9.8c1.5.8 3 .7 4.4.2z" class="g"/><path d="m177.6 149-1.4 1c-3.4 1.8-6.5 4-9.2 6.6l-6.8 6.5c-3.1 3.4-6 7-8.1 11l-.8 1.3c-.3-2.6.3-5 .6-7.5l-1.3.8-8 5c-1.8 1-4 1.4-6 1.8a44 44 0 0 1-8.3.5c-2.3 0-4.5-.4-6.7-1.1a74 74 0 0 1-11-4.7l-1.5-.7c.7 3.7 2.4 6.8 4.2 9.8a13 13 0 0 1-3.7-2.2 35.6 35.6 0 0 1-5.6-6l-6.6-7.5c-1.9-2.2-3.6-4.5-5.6-6.6l-7-6.8c-1.9-1.9-4.3-2.9-6.4-4.3l-1.8-1c-.2-.1-.3-.4-.4-.6l3.3 1.3c4 1.7 8.2 2.6 12.4 3.5 1 .2 1.5-.2 2.2-1.2l4.3.8 7.6 1.2a147 147 0 0 0 17.7 1.5h5.6l3.3-.2c-.3 1.6 0 2.2 1.7 2.4l1.8.2 7-.2c2-.1 4.1-.1 6.1-.3a263 263 0 0 0 21.4-2.9z" class="i"/><path d="M188.5 295v4l-.9 7.6c-.1 1.1-.5 2.2-.8 3.2a2.2 2.2 0 0 1-1.9 1.9l-5.6 1-1.3.2c-1.9.3-3.2-.7-4.4-1.8a54.5 54.5 0 0 1-9-10.8 101 101 0 0 1-10.3-25.7 30.8 30.8 0 0 1-.6-12.9c.1-.7.5-1 1.2-1l3.2.2c1.4.2 2.7-.2 3.8-1 1.3-1 2.7-1.8 4-2.7 1.2-1 2.5-1 4-.4 1.1.5 2.3.8 3.5 1.2 1.4.4 2.7 0 4-.6l2.9-1c1.4-.5 2-.2 2.5 1.3a75 75 0 0 1 3.5 12.3l1 7 .6 6.6c.1 1 .3 2 .3 3.1l.4 8.3z" class="g"/><path d="m249 275 1.9-4.5a97 97 0 0 0 6-24.4l.7-9.2c0-.5.2-.8.7-1 2.8-1.6 5.9-2.7 9-3.5l10.2-2.9 2.6-.4.6 4.3c.3 2.5.6 5 .7 7.6a69 69 0 0 1-.4 9.4c-.4 3.5-1 7-2.3 10.3l-2 4.5a3 3 0 0 1-1.5 1.4c-2.7 1.2-5.3 2.5-8 3.5a96 96 0 0 1-15 4.4c-1 .3-2 .4-3.1.6Z" class="d"/><path d="m71.8 292.6 2.6.2 1.8.2 15.4.3c2 0 3.8-.3 5.8-.5h.6l6.2-.5 3.5-.2 4.7-.3 4.5-.5a92 92 0 0 1 10.7-.5l19.1-.2c2.9 0 5.7.4 8.5 1 .4.2.8.1 1.3.2l4.5 9.4-2.2-.2-9.9-1.2-6.3-.5a184 184 0 0 0-19-1h-19.8c-2.7 0-5.4.2-8.1.1a171 171 0 0 1-21.2-1.4c-.8 0-1.7-.3-2.6-.5z" class="c"/><path d="m267.4 196.2 2 2.5a46 46 0 0 1 5.8 11.5c1.8 5 3.3 10 4.3 15.4-7.3 1.7-14.5 3.5-21.6 6.5v-1.3l-.3-6.8c0-1.2-.3-2.5-.4-3.7a3 3 0 0 1 .4-2.1c1.7-2.3 2.7-4.8 3.8-7.3z" class="d"/><path d="m291.7 227 5.2-.8 6.6-.6c4.5-.4 9-.2 13.6-.2 1.8 0 3.6.2 5.4.9 0 .3-.1.6-.3.8l-1.6 1.8-7 7.4-9.4 9.2c-2.8 2.7-5.9 5.2-8.8 7.7l-2 1.6c-.4-.7-.2-1.4 0-2 .3-2.3.8-4.5 1-6.7.3-3 0-6-.5-9-.5-2.7-1.3-5.4-1.9-8.1z" class="g"/><path d="M40.8 175.5c3.3.2 6.2-1 9-2.6.5-.4 1-.6 1.6-.9l15.8-8.5 2.9-1.8.7-.4v.7l-4.4 10.4-5 12.3c-1.3 3.5-2.4 7.1-3.6 10.7l-.6 2-3.7-6.3a62 62 0 0 0-7.1-9.4l-5.7-6.2Z" class="i"/><path d="M210 15c-.8-1.4-1.6-1.8-3-1-1.5 1-3.1 2-4.6 3.3s-3 2.7-4.5 4.3l-1.5-1.1a336 336 0 0 0-3.6-2.6c-1-.7-1-1-.5-2a42 42 0 0 1 7.8-9.5A8.5 8.5 0 0 1 206 4c2.5 0 5 .3 7.3 1.5 3.5 2 5.8 4.8 6.6 8.8l.8 4.9c.4 3.2-.8 5.8-3.4 7.7l-4.4 3-2 .8a9 9 0 0 1 1.2-5.3c.5-.8.7-1.8 1-2.8a6 6 0 0 0-.2-4.9c-.6-1.3-1.3-2.5-2.9-2.7M61.2 29.5a32 32 0 0 1-5.8-6.4c-1-1.4-1.2-3-1.4-4.5-.3-3.7.7-7 2.4-10.3 1-1.7 2.7-2.5 4.4-3.1C64 4 67.5 3.2 71 3.4a11.5 11.5 0 0 1 10.2 6.5c1 1.7 1.7 3.5 2.6 5.3.3.5.2.9-.3 1.3l-7.8 6-.4.2-.6-1.2c-1.3-3.3-3.3-6-5.4-8.7L68 11.2c-1.1-1.1-2-1-3 .1 0 .1 0 .2-.2.3-.4.1-1 .1-1.2.4l-2.3 2.2c-2.8 2.8-2.2 7-.8 9.7.5 1.1.8 2.2 1 3.4.2.8.1 1.6-.4 2.2Z" class="h"/><path d="m291.7 227 .3 2c.6 2.7 1.4 5.4 1.9 8.1.5 3 .8 6 .5 9-.2 2.2-.7 4.4-1.1 6.7-.1.6-.3 1.3.1 2l-7.6 5.6-2.9 2c-.4.2-1 .3-1.4.6.6-2.1 1.3-4.1 1.8-6.2l1-5.6c.5-3.5.5-7 .4-10.5 0-1.7-.3-3.4-.4-5.2a427 427 0 0 0-.6-5.1l-.3-2.2 8.3-1.3Z" class="d"/><path d="m277.7 169.5.6-2 8.5-21.3 2.3-5.3c.4-.9.6-1 1.4-.4 2.2 1.5 4 3.2 5.7 5.2l3.4 3.7 3.1 3.8-2.1 1.3c-7.1 3.7-13.8 8-20 13-.8.4-1.4 1-2 1.6l-.8.4Z" class="h"/><path d="M192 295.5c1.5 0 3 .3 4.5.2 2.3 0 4.6-.3 7-.4a79 79 0 0 0 26.3-6.6c2.5-1.2 5-2.7 7.5-4 .4-.3 1-.4 1.4-.6l-1 1a63 63 0 0 1-21.7 13.2 116 116 0 0 1-19.8 5.5c-1.5.3-3 .4-4.6.6-.4-1.5.2-3 .1-4.4z" class="c"/><path d="M61.2 29.5c.5-.6.6-1.4.4-2.2-.2-1.1-.5-2.3-1-3.4-1.4-2.7-2-6.9.8-9.7l2.3-2.2c.3-.3.8-.3 1.2-.4 0 .8.3 1.3.8 1.9a35.8 35.8 0 0 1 6.6 11c.2.6.1 1.2-.5 1.7L66.1 32c-.8.8-.9.8-1.8 0l-3.1-2.4Zm209.1 164.8c1 0 1.6.9 2.2 1.4a62.4 62.4 0 0 1 17.3 26.5l.4 1.5-7.3 1.2-.4-1.1a99.7 99.7 0 0 0-4.8-16.6 50 50 0 0 0-5.7-10.6zM210 15c1.5.3 2.2 1.6 2.8 2.8.8 1.6.8 3.3.2 5-.3 1-.5 2-1 2.8a8.4 8.4 0 0 0-1.1 5.2l-1.2.6c-.6.2-1 0-1.4-.3l-2-2-4.7-4.3-1-.7.8-1.1c2.2-2.4 4.6-4.5 7.4-6.1.7-.4 1.2-1 1.1-1.8Z" class="d"/><path d="m74.9 143.6-.5-.3zm.5.2-.5-.2zm.5.2c-.2 0-.3 0-.5-.2l.5.3Z" class="i"/><path d="m277.8 169.5-.2.1.1-.1Z" class="h"/><path d="m76.2 144.3-.3-.2s.2 0 .3.2" class="i"/><path d="M281.5 263h-.1z" class="d"/><path d="m194.3 221.2-4.4 5a94.8 94.8 0 0 1-14 13.3c-.6.5-1.3.8-2 1-1 .5-2 .3-2.8-.4l-.6-.5c-.5-.6-1-.7-2-.6a9.3 9.3 0 0 1-6.8-2.1 7.1 7.1 0 0 0-5-2.3l-1.5-.3c-2.2-.7-3.2-2.1-3-4.4l.8-6c1.3-7.2 3.3-14.3 5-21.5 1.3-5.4 2.3-11 3.1-16.5l2.3-15.6c0-.4 0-.8.2-1.1.2-.4.5-.8.8-1 .9-.7 2-.3 2 .7.2 1 .2 2 .1 2.9a324 324 0 0 1-1.4 10.3c-.7 4.3-1.3 8.6-2.2 12.8-1.1 5.7-2.5 11.3-3.9 17a172 172 0 0 0-3.2 16c-.2.7-.2 1.5-.3 2.2-.1.6.2.9.7 1l2.2.4c1.9.2 3.5 1 5 2.4a8 8 0 0 0 3.4 1.8c.7.1 1.2 0 1.8-.1 1.7-.7 2.2-.6 3.4.8.3.3.5.7 1 1.1 1.2-.8 2.4-1.5 3.4-2.4 2.5-2.3 5-4.5 7.3-7 4.8-5.2 9.5-10.5 13.5-16.3 7-10 12.6-20.5 15.8-32.2l.4-2.5c0-1 .5-1.6 1.3-1.8.7-.1 1.5.2 1.8 1 .2.7.2 1.5.2 2.2 0 .8-.3 1.5-.5 2.3l-1.2 3.6a121 121 0 0 1-17.6 32.8z" class="k"/><path d="m194.3 221.2 3.1-4a120.2 120.2 0 0 0 17.6-32.8l1.2-3.6.4 3.6c.3 2.7.3 5.5 1 8.3l.7 4.5c.3 3 .9 6 1.6 9l1 4.5-1.3-.8-1-1.1a7.7 7.7 0 0 0-.2 3.4l.2.6.2 12.3v.5c-.9.1-1.5-.4-2-.7-2.4-1.9-5.4-2.4-8.2-3.1-3.3-.8-6.6-1.2-10-1.1-1.5 0-3 .3-4.3.5" class="i"/><path d="M176.9 73.2a11 11 0 0 1-1.9 6.3 6.3 6.3 0 0 1-3.7 2.7c-2.3.5-4.2-.3-5.7-2a9.9 9.9 0 0 1-2.4-5.8c-.2-2 0-4 1-6a8 8 0 0 1 2.2-3 5.5 5.5 0 0 1 7.3.1 9 9 0 0 1 3 6.4zm-76.9 1a11 11 0 0 1-1.9 6.4c-.9 1.2-2 2.2-3.6 2.6-2.3.5-4.2-.3-5.7-2a9.9 9.9 0 0 1-2.4-5.8c-.3-2.1 0-4.1 1-6a8 8 0 0 1 2.1-3 5.5 5.5 0 0 1 7.4.1 9.8 9.8 0 0 1 3 6.4l.1 1.2Z" class="l"/><path fill="#040202" d="m177.6 149-7 1.4a249 249 0 0 1-21.4 2.8l-6 .3a416 416 0 0 1-9 .1c-1.5-.2-2-.8-1.6-2.5.6-.6 1.3-.8 2.1-.8h8.7A193.3 193.3 0 0 0 179 145l1.2-.3c.9-.3 1.7.1 2 1 .4.7 0 1.6-.8 2l-1.1.4-2.6.7Z"/><path fill="#090605" d="m121.3 102.3-1.5-.5c-.9-.3-1.2-.7-1-1.3s.7-.7 1.6-.4c2.1.8 4.2.6 6.3-.3 1.6-.6 3-1.7 4-3.2.6-1.1 1.3-1 2 0a8.5 8.5 0 0 0 6.6 4c1.6.2 3.1.4 4.7-.2.6-.3 1 0 1.2.5.1.5-.2.9-.6 1l-2.1.7-.4 2.7c-.6 4-1.9 8-3.4 11.7-.7 1.8-1.8 3.4-3.2 4.7-.5.5-1 1-1.7 1.3-1.6.8-3.2.7-4.6-.3a11.1 11.1 0 0 1-3.6-4.2 45 45 0 0 1-3.7-11.8zm2 0v1a37 37 0 0 0 4.2 14.9 9.3 9.3 0 0 0 2.5 3c1 .7 1.9.8 2.8.3.6-.3 1-.7 1.5-1.1a14 14 0 0 0 3-4.6c1.2-3 2.3-6.2 2.9-9.4l.5-3.8c-3.8 0-6.7-1.5-9.1-4.2-2.2 2.5-5 3.8-8.3 4Z"/><path d="M193.8 98.4c10.5 0 20.6 2 30.4 5.5 1.3.5 1.9 1.4 1.5 2.3-.3 1-1.2 1.3-2.5.9-3.4-1-6.9-2.2-10.3-3-4-1.1-8-1.7-12-2-3.5-.4-7-.6-10.6-.4-1 0-1.7-.6-1.8-1.5 0-.9.7-1.7 1.7-1.8z" class="k"/><path d="m132 81.6 4.3.8c.6 0 1.1.3 1.6.6 1.6 1 1.7 2.6 1 4-.2.5-.6 1-1 1.4a89 89 0 0 1-4 3.5c-1.1 1-2.3 1-3.5 0l-4.8-4c-.2-.3-.5-.6-.6-1-1-1.6-.6-3.3 1.1-4.2.7-.4 1.4-.5 2.1-.7l2.4-.3h1.3v-.1Z" class="l"/><path d="m220.8 210.7.1.2v-.1Z" class="i"/><path fill="#b76f5c" d="M123.3 102.4c3.3-.2 6.1-1.5 8.3-4 2.4 2.7 5.3 4.2 9 4.2a48.3 48.3 0 0 1-3.4 13.3c-.6 1.6-1.6 3.2-2.9 4.5a5 5 0 0 1-1.5 1c-1 .6-1.9.5-2.7-.2a9 9 0 0 1-2.6-3 37.8 37.8 0 0 1-4.2-14.8z"/></svg>