<svg xmlns="http://www.w3.org/2000/svg" fill="none" viewBox="0 0 200 107"><path fill="#122AFF" d="m140.3 36.3-37.5-.8c-2.2 0-3.6.8-4.7 2.7L80 68.2c-1 1.5-2.1 2-3.8 2L3.7 69c-3 0-4.7-2.7-3-5.4l16.7-27.8c.8-1.3 2-1.7 3.5-1.7l34.6.7c2.5 0 4-.7 5.3-2.9L78 3.3C79.3.9 81-.1 83.7 0L184 1.8l11.6.2c3.3.1 4.8 2.8 3 5.6l-16.3 27a4.2 4.2 0 0 1-4 2.3 9837 9837 0 0 0-38-.7Z"/><path fill="#122AFF" d="m96.9 105.7-31.3-.5h-1.9c-2.9-.3-4.2-2.9-2.8-5.4l9.9-16.3 6.6-11a4 4 0 0 1 4-2.2l34.8.7c2.2 0 3.6-.7 4.8-2.6l15.8-26.5c.8-1.3 1.8-2.4 3.5-2.3 1.7 0 2.5 1.1 3.3 2.5l14.8 26.5c1.2 2.2 1.2 4-.1 6.1-6 9.6-11.8 19.3-17.5 29-1.2 2-2.7 2.9-5 2.8l-39-.8Z"/></svg>