<svg xmlns="http://www.w3.org/2000/svg" width="55" height="72" viewBox="0 0 55 72"><g fill="none" fill-rule="evenodd"><path fill="#0051A5" d="M54.586 62.952c0 2.367-.97 3.742-2.865 4.47-7.366 2.84-16.087 4.304-24.383 4.304-8.295 0-17.017-1.465-24.384-4.305C1.06 66.694.09 65.32.09 62.951V.09h54.496v62.863z"/><path fill="#FEDF01" d="M14.704 38.397c-7.542-4.709-10.036-6.796-10.248-9.884-.036-.63.107-1.688.37-2.443l-.712-.472c-.569.904-.93 2.1-.93 3.195 0 1.785.57 3.137 1.272 4.215 1.06 1.634 2.177 2.658 4.921 4.718 2.962 2.222 4.98 4.814 6.144 7.528h.422v-3.08c3.999 2.271 7.528 4.408 9.26 8.225h.421c-.68-3.956-2.917-7.006-10.92-12.002M36.849 28.098c-1.651.74-2.79 1.743-3.803 3.186l3.373-.177c.12-1.497.316-2.492.43-3.01zm12.156 12.038c.337-.823.556-1.615.615-2.618l-4.927-.28c-.222 1.38-.59 2.58-.982 3.563l5.294-.665zM43.67 27.908c.353.947.618 1.869.815 2.754l2.897-.158a9.321 9.321 0 0 0-3.712-2.596zm-1.318 2.872c-.494-1.711-1.084-2.902-1.396-3.463-.197-.01-.398-.017-.599-.017-.333 0-.67.043-.992.08a29.898 29.898 0 0 0-1.19 3.633l4.177-.233zm2.42 1.552c.153 1.236.168 2.396.091 3.465l4.742-.252a9.185 9.185 0 0 0-.888-3.03l-3.946-.183zm-1.613 3.553a21.277 21.277 0 0 0-.44-3.647l-4.787-.218a29.912 29.912 0 0 0-.648 4.177l5.875-.312zm.735-10.24l.563-.787-.87-1.161.145-.255 2.444 1.318-.532 1.614c.391.188.755.43 1.238.749l1.578-2.594-4.087-2.137h-9.033l-7.331 4.412c1.377.956 2.645 1.989 3.543 3.03 1.966-2.857 5.418-4.681 8.835-4.681 1.116 0 2.419.118 3.507.492zm-18.073-.259l4.046-2.425a6.112 6.112 0 0 0-2.716-.659c-1.394-.023-3.749.62-4.887.794.507.348 2.317 1.503 3.557 2.29zm.83-9.136c-1.437-.314-2.237-.137-3.065.65.404.193.911.297 1.471.257.807-.056 1.31-.54 1.594-.907zm22.806 34.156h-.509c0-2.817-2.581-3.585-5.287-3.585h-8.45c.272 1.388.4 3.014.189 4.547h-.421c-.783-6.326-4.359-9.461-9.357-12.814v2.878h-.42c-1.327-2.97-4.249-5.76-7.012-7.737-.735-.526-1.494-1.07-2.25-1.606v3.105h-.42c-1.173-3.082-3.3-5.379-6.333-8.116-3.277-2.95-4.598-4.714-5.364-6.743-.466-1.23-.596-2.224-.614-3.574-.032-2.414 1.19-4.596 2.712-5.413v1.17c-.755 1.001-1.146 2.265-1.148 3.55-.002 1.183.28 2.502.872 3.627 1.844 3.512 8.059 7.823 12.004 10.47 12.274 8.23 14.723 9.667 16.76 14.037.227.485.454 1.14.644 1.899 1.773-.274 8.204-1.251 9.389-1.44.227-.036.701-.096.947-.11 1.108-.702 1.974-1.594 2.733-2.706l-4.705-.366c-.241.54-.483.993-.695 1.356h-.382c.128-.479.241-.95.335-1.414l-1.2-.09v-.254l1.3-.16c.249-1.333.369-2.59.394-3.768l-5.926-.334a18.462 18.462 0 0 0-.017 1.709h-.378a22.063 22.063 0 0 1-.304-1.75l-1.298-.075v-.395l1.234-.067a27.046 27.046 0 0 1-.12-4.287l-3.464-.16c.164.305.333.613.45.949.75 2.09.572 4.54.324 5.667h-.42c-.06-1.305-.5-2.902-.915-3.877-.958-2.259-3.11-4.254-6.713-6.57v2.885h-.42c-1.199-3.792-4.182-5.903-8.618-8.18-3.661-1.878-4.799-4.143-4.591-7.646l1.236.732c.316 3.278 2.836 5.169 5.47 5.147 1.55-.01 3.003-.216 4.41-.498 2.028-.409 3.903-.76 5.47-.203V18.26h-1.229c-.44.38-1.332.824-2.648.843-1.443.028-4.176-.806-4.176-3.858 0-2.652 2.245-3.076 4.072-3.076.977 0 2.602-.036 3.154-.066.409-.025.714-.087.913-.284.208-.203.27-.413.319-.685.058-.327.058-.665.058-1.234V7.965h-8.47v3.353L17.37 10.1v-.802h1.534V7.965H13.19V5.181h-1.948c-1.041 0-2.241.729-2.325 2.142-.08 1.354.529 2.496 1.925 2.496h.25v1.623h-.25c-2.444 0-4.288-1.837-4.288-4.275 0-2.538 2.164-4.472 4.778-4.472h4.132V5.48h16.06v4.115c0 .693-.036 1.625-.104 2.213-.047.428-.199 1.2-1.012 1.818-.487.374-1.225.524-2.425.528a50.71 50.71 0 0 1-2.896-.1c-1.828-.116-2.348.59-2.42 1.246a1.685 1.685 0 0 0 0 .402c.857-.662 2.068-1.13 3.445-.699 2.425.762 3.116.83 4.378-.162l.128.284a3.131 3.131 0 0 1-.734.78h1.172v6.344l3.645-2.184h10.226l5.037 2.63c.626.33.874.73.973 1.316.081.49-.045 1.11-.287 1.506-.15.248-1.326 2.175-1.946 3.203a11.002 11.002 0 0 1 2.913 7.445c0 2.658-.984 6.084-4.175 8.631 1.403.46 2.304 1.223 3.007 2.233l-.992 3.377z"/><path fill="#FFF" d="M27.657 64.007h-1.935v-5.54h1.846c2.538 0 3.513.754 3.513 2.658 0 2.057-1.272 2.882-3.424 2.882zm-.154-10.996c1.536 0 2.575.331 2.575 1.971 0 1.748-1.394 2.229-2.985 2.229h-1.371v-4.2h1.781zm3.086 4.672c1.376-.222 2.689-1.291 2.689-2.908 0-1.459-.618-3.058-4.909-3.058H21.13v.117c.218.067.565.244.792.469.491.479.654 1.197.678 2.151v10.837h5.998c3.3 0 5.689-1.258 5.689-4.14 0-2.347-1.824-3.343-3.698-3.468zM10.214 53.01h2.113c1.758 0 2.676.514 2.676 2.383 0 1.668-1.2 2.654-3.127 2.654h-1.662V53.01zm5.573 12.28h3.91l-4.994-6.383c2.002-.535 3.501-1.63 3.501-3.619 0-2.335-1.396-3.571-5.054-3.571H5.6v.117c.278.099.59.278.793.48.529.519.687 1.317.687 2.39V65.29h3.135v-6.016h1.144l4.43 6.016zM46.965 53.576c.839.477 1.093 1.098 1.1 1.104.04.045.13.03.13.03l.682-2.32s-1.225-.882-4.14-.882c-4.414 0-7.718 2.225-7.718 7.088 0 5.481 3.935 6.905 7.406 6.905 3.227 0 4.495-1.026 4.495-1.026v-1.593s-1.142 1.065-3.586 1.065c-2.021 0-4.983-.922-5.048-5.428C40.23 54.359 42.042 53 44.472 53c1.356 0 2.034.317 2.493.575"/></g></svg>