<svg xmlns="http://www.w3.org/2000/svg" width="25" height="26" fill="none"><path fill="#6355ff" fill-rule="evenodd" d="M0 13C0 6.096 5.596.5 12.5.5S25 6.096 25 13s-5.596 12.5-12.5 12.5S0 19.904 0 13Zm8.054-1.792a3.593 3.593 0 0 1 .78-2.726 3.833 3.833 0 0 1 2.568-1.395v-.853c0-.444.371-.804.829-.804.458 0 .829.36.829.804v1.02c.397.13.778.326 1.127.59l1.42 1.076c.362.274.426.778.144 1.128a.846.846 0 0 1-1.164.14l-1.42-1.077c-.937-.71-2.294-.548-3.026.36a2.03 2.03 0 0 0-.44 1.541c.07.554.358 1.049.811 1.392l2.025 1.534c.361.274.425.779.143 1.129a.837.837 0 0 1-.653.308.842.842 0 0 1-.51-.17l-2.025-1.534a3.647 3.647 0 0 1-1.438-2.463Zm5.267-.206 1.968 1.534v.001a3.696 3.696 0 0 1-1.857 6.584v.853a.805.805 0 0 1-1.61 0v-1.021a3.686 3.686 0 0 1-1.096-.59l-1.38-1.076a.802.802 0 0 1-.14-1.128.807.807 0 0 1 1.132-.139l1.38 1.077c.382.297.837.441 1.287.441a2.093 2.093 0 0 0 2.081-2.343 2.074 2.074 0 0 0-.79-1.392L12.33 12.27a.802.802 0 0 1-.139-1.128.806.806 0 0 1 1.131-.139Z" clip-rule="evenodd"/></svg>